# xmcd CD database file
#
# Track frame offsets:
#	150
#	14477
#	29387
#	49599
#	63824
#	81619
#	95370
#	108722
#	128157
#	146327
#	159824
#	177269
#	192304
#	211971
#
# Disc length: 3077 seconds
#
# Revision: 0
# Processed by: cddbd v1.5.2PL0 Copyright (c) Steve Scherf et al.
# Submitted via: CDex 1.51
#
DISCID=bb0c030e
DTITLE=קרן לוי - ימים נשברים
DYEAR=2013
DGENRE=מזרחי
TTITLE0=לך נשבעתי
TTITLE1=יפה שלי
TTITLE2=ימים נשברים
TTITLE3=אחד למיליון
TTITLE4=אביר חיי
TTITLE5=מלכה של העולם
TTITLE6=קשה לי בלעדיך
TTITLE7=לבדי בלילות
TTITLE8=בחלומות
TTITLE9=צלצל אליי
TTITLE10=אתה מדליק
TTITLE11=אל תבכי ילדה
TTITLE12=למונילי (אהובי) (עם מומי עמר)
TTITLE13=אביר חיי (גירסת פול דאנס)
EXTD=YEAR: 2013
EXTT0=
EXTT1=
EXTT2=
EXTT3=
EXTT4=
EXTT5=
EXTT6=
EXTT7=
EXTT8=
EXTT9=
EXTT10=
EXTT11=
EXTT12=
EXTT13=
PLAYORDER=
